<?xml version="1.0" encoding="UTF-8"?>
<svg version="1.1" xmlns="http://www.w3.org/2000/svg" width="235" height="234">
<path d="M0 0 C77.55 0 155.1 0 235 0 C235 77.22 235 154.44 235 234 C157.45 234 79.9 234 0 234 C0 156.78 0 79.56 0 0 Z " fill="#1ECDE1" transform="translate(0,0)"/>
<path d="M0 0 C77.55 0 155.1 0 235 0 C235 77.22 235 154.44 235 234 C157.45 234 79.9 234 0 234 C0 156.78 0 79.56 0 0 Z M57.9375 23.5 C57.28394531 23.83475342 56.63039062 24.16950684 55.95703125 24.5144043 C38.71376222 33.81220465 26.07880975 49.51610621 19.98222351 68.10292053 C17.17140153 77.75896241 16.41978752 86.55504649 16.50390625 96.57421875 C16.50375065 98.11587085 16.50225163 99.65752333 16.49949646 101.19917297 C16.4981254 104.40192339 16.51045413 107.60421891 16.53344727 110.80688477 C16.56190094 114.87810577 16.55905748 118.94857743 16.54635715 123.01985455 C16.53935096 126.19350916 16.54724391 129.36699536 16.55961418 132.54062843 C16.56407578 134.04068159 16.56451277 135.54075317 16.56054878 137.04080772 C16.53323197 156.45411305 21.64082226 173.87759146 34 189 C34.46921875 189.63164062 34.9384375 190.26328125 35.421875 190.9140625 C46.21764121 204.82154955 64.06330528 212.82257283 81 216 C86.46273112 216.53230154 91.88234179 216.58990468 97.36328125 216.56640625 C98.89056266 216.57166515 100.41784083 216.57794971 101.94511414 216.58518982 C105.12266485 216.59550307 108.29976528 216.59116722 111.47729492 216.57641602 C114.69581852 216.56267693 117.91315586 216.56957423 121.1315918 216.59692383 C147.68576759 216.82203818 172.67659262 215.79032236 192.8671875 196.1328125 C193.57101563 195.42898437 194.27484375 194.72515625 195 194 C195.62132812 193.46117187 196.24265625 192.92234375 196.8828125 192.3671875 C209.51933043 181.09065357 216.04345927 161.60026029 217.28903198 145.19265747 C217.4090115 141.14751089 217.44470391 137.11280924 217.43359375 133.06640625 C217.43817384 131.57535062 217.4434847 130.08429708 217.44947815 128.59324646 C217.45833352 125.49135682 217.45607358 122.38972568 217.44604492 119.2878418 C217.43455987 115.3569052 217.454798 111.42686769 217.48396206 107.49604893 C217.5025042 104.42350309 217.50199635 101.35116569 217.49632454 98.2785778 C217.49617354 96.83122432 217.50202957 95.38385462 217.51461601 93.93655586 C217.6617382 74.25655357 211.8628757 57.09579544 199 42 C198.278125 41.01 197.55625 40.02 196.8125 39 C185.92759862 26.19423367 168.24625496 18.74189292 152 16 C149.71926539 15.89496803 147.43590763 15.84165016 145.15283203 15.82299805 C144.48369278 15.81642685 143.81455353 15.80985565 143.12513733 15.80308533 C140.91936095 15.78344601 138.71365271 15.77170439 136.5078125 15.76171875 C135.74780819 15.75764322 134.98780388 15.7535677 134.20476913 15.74936867 C130.17395047 15.72853747 126.14316545 15.71422879 122.11230469 15.70483398 C117.98950941 15.69383717 113.86726396 15.65950804 109.74466133 15.61966228 C106.54089501 15.59324757 103.3372541 15.58511993 100.13338852 15.58155251 C98.61623337 15.57674227 97.09908164 15.56529173 95.58203506 15.54651451 C82.339977 15.39293266 69.87041669 17.31738954 57.9375 23.5 Z " fill="#FDFEFE" transform="translate(0,0)"/>
<path d="M0 0 C3.5625 1.1875 3.5625 1.1875 5.75 4.25 C7.6469515 8.77717836 8.73391998 13.51614623 9.85229492 18.28540039 C11.3264797 24.50543183 13.16349492 30.58527029 15.0625 36.6875 C17.47409468 44.46508264 19.63352011 52.21940604 21.5234375 60.140625 C22.93881556 65.86555541 24.74208455 71.48737188 26.54516602 77.1003418 C28.22705956 82.48866087 29.09482145 87.55845335 29.5625 93.1875 C30.2225 93.1875 30.8825 93.1875 31.5625 93.1875 C31.67078125 92.0840625 31.7790625 90.980625 31.890625 89.84375 C32.54428027 84.65107593 33.88462719 79.71390076 35.3125 74.6875 C35.55226563 73.78902344 35.79203125 72.89054687 36.0390625 71.96484375 C38.02280844 64.93992901 40.55630656 57.94603804 46.8125 53.6875 C51.16541949 51.80402522 55.63951563 51.80523156 60.3125 51.75 C61.43060059 51.73453125 61.43060059 51.73453125 62.57128906 51.71875 C65.8167385 51.77149771 68.18492798 51.97945011 71.05078125 53.55859375 C72.5625 55.1875 72.5625 55.1875 73 57.6875 C72.48322989 60.64047204 71.87763835 61.35393646 69.5625 63.1875 C67.56958008 63.61987305 67.56958008 63.61987305 65.33203125 63.69921875 C64.52958984 63.73466797 63.72714844 63.77011719 62.90039062 63.80664062 C62.06701172 63.82919922 61.23363281 63.85175781 60.375 63.875 C59.53001953 63.90916016 58.68503906 63.94332031 57.81445312 63.97851562 C55.73093351 64.06091471 53.64673784 64.12588645 51.5625 64.1875 C48.32187847 69.86105015 46.81806224 75.90882804 45.125 82.1875 C44.50652896 84.43229678 43.8880395 86.67708848 43.26953125 88.921875 C42.47649614 91.82663194 41.68564774 94.73193504 40.89990234 97.63867188 C40.37632075 99.573126 39.84484447 101.50543898 39.3125 103.4375 C39.03921875 104.45328125 38.7659375 105.4690625 38.484375 106.515625 C37.38127756 109.71273793 35.98410287 112.76589713 33.5625 115.1875 C30.6875 115.5 30.6875 115.5 27.5625 115.1875 C21.54028597 108.7169822 20.20893766 98.02725499 18.19677734 89.7253418 C16.62836133 83.30617769 14.8235334 76.9649906 12.98925781 70.61743164 C10.92870678 63.48589282 8.92642909 56.33931748 6.9375 49.1875 C4.60385468 40.81263194 2.21310516 32.46858321 -0.4375 24.1875 C-2.99710596 29.9770849 -4.42141117 36.16431035 -6.05078125 42.26367188 C-9.89756876 56.16592207 -9.89756876 56.16592207 -15.5 60.625 C-20.6424031 63.3603208 -24.76127188 63.40180045 -30.4375 63.4375 C-31.25734375 63.458125 -32.0771875 63.47875 -32.921875 63.5 C-33.71078125 63.50515625 -34.4996875 63.5103125 -35.3125 63.515625 C-36.39144531 63.52964355 -36.39144531 63.52964355 -37.4921875 63.54394531 C-40.01146471 63.08233076 -40.88484173 62.18804046 -42.4375 60.1875 C-42.875 57.6875 -42.875 57.6875 -42.4375 55.1875 C-39.98584354 52.51706055 -37.88592616 51.97666496 -34.3984375 51.74609375 C-32.87021972 51.69189225 -31.34144141 51.65193605 -29.8125 51.625 C-24.11381434 51.85228245 -24.11381434 51.85228245 -19.4375 49.1875 C-18.71862681 47.15416685 -18.71862681 47.15416685 -18.17578125 44.76953125 C-17.83317261 43.39812988 -17.83317261 43.39812988 -17.48364258 41.99902344 C-17.24154053 41.0093457 -16.99943848 40.01966797 -16.75 39 C-14.57854961 30.42859284 -12.27979406 21.91051711 -9.75 13.4375 C-9.46487549 12.45628174 -9.17975098 11.47506348 -8.88598633 10.46411133 C-8.61036865 9.55298584 -8.33475098 8.64186035 -8.05078125 7.703125 C-7.81141846 6.90165039 -7.57205566 6.10017578 -7.32543945 5.27441406 C-5.6339376 1.29889636 -4.35172095 0.2373666 0 0 Z " fill="#F7FDFE" transform="translate(102.4375,58.8125)"/>
</svg>
